<svg width="30" height="22" viewBox="0 0 30 22" fill="none" xmlns="http://www.w3.org/2000/svg">
<g id="&#240;&#159;&#166;&#134; icon &#34;Envelope&#34;">
<path id="Vector" d="M28.6817 7.46915C28.9016 7.29434 29.2287 7.45787 29.2287 7.73418V19.266C29.2287 20.7604 28.0163 21.9727 26.5219 21.9727H3.06355C1.5692 21.9727 0.356812 20.7604 0.356812 19.266V7.73982C0.356812 7.45787 0.678237 7.29997 0.903798 7.47478C2.16694 8.45598 3.84174 9.7022 9.59355 13.8807C10.7834 14.7491 12.7909 16.5762 14.7927 16.5649C16.8059 16.5818 18.8528 14.7153 19.9976 13.8807C25.7494 9.7022 27.4185 8.45034 28.6817 7.46915ZM14.7927 14.7548C16.101 14.7773 17.9844 13.1082 18.9318 12.4202C26.4148 6.98983 26.9843 6.51615 28.7099 5.16278C29.0369 4.90902 29.2287 4.51429 29.2287 4.097V3.02559C29.2287 1.53124 28.0163 0.318848 26.5219 0.318848H3.06355C1.5692 0.318848 0.356812 1.53124 0.356812 3.02559V4.097C0.356812 4.51429 0.548539 4.90338 0.875603 5.16278C2.60115 6.51051 3.17069 6.98983 10.6537 12.4202C11.601 13.1082 13.4845 14.7773 14.7927 14.7548Z" fill="white"/>
</g>
</svg>
