<svg width="25" height="28" viewBox="0 0 25 28" fill="none" xmlns="http://www.w3.org/2000/svg">
<g id="instagram (3) 2" clip-path="url(#clip0_255_2244)">
<path id="Vector" d="M12.568 7.71074C9.08983 7.71074 6.28436 10.5162 6.28436 13.9943C6.28436 17.4725 9.08983 20.2779 12.568 20.2779C16.0461 20.2779 18.8515 17.4725 18.8515 13.9943C18.8515 10.5162 16.0461 7.71074 12.568 7.71074ZM12.568 18.0795C10.3203 18.0795 8.48279 16.2475 8.48279 13.9943C8.48279 11.7412 10.3148 9.90918 12.568 9.90918C14.8211 9.90918 16.6531 11.7412 16.6531 13.9943C16.6531 16.2475 14.8156 18.0795 12.568 18.0795ZM20.5742 7.45371C20.5742 8.26855 19.918 8.91934 19.1086 8.91934C18.2937 8.91934 17.643 8.26309 17.643 7.45371C17.643 6.64434 18.2992 5.98809 19.1086 5.98809C19.918 5.98809 20.5742 6.64434 20.5742 7.45371ZM24.7359 8.94121C24.643 6.97793 24.1945 5.23887 22.7562 3.80605C21.3234 2.37324 19.5844 1.9248 17.6211 1.82637C15.5976 1.71152 9.53279 1.71152 7.50936 1.82637C5.55154 1.91934 3.81248 2.36777 2.3742 3.80059C0.935919 5.2334 0.49295 6.97246 0.394513 8.93574C0.279669 10.9592 0.279669 17.024 0.394513 19.0475C0.487482 21.0107 0.935919 22.7498 2.3742 24.1826C3.81248 25.6154 5.54608 26.0639 7.50936 26.1623C9.53279 26.2771 15.5976 26.2771 17.6211 26.1623C19.5844 26.0693 21.3234 25.6209 22.7562 24.1826C24.189 22.7498 24.6375 21.0107 24.7359 19.0475C24.8508 17.024 24.8508 10.9646 24.7359 8.94121ZM22.1219 21.2186C21.6953 22.2904 20.8695 23.1162 19.7922 23.5482C18.1789 24.1881 14.3508 24.0404 12.568 24.0404C10.7851 24.0404 6.95154 24.1826 5.34373 23.5482C4.27186 23.1217 3.44608 22.2959 3.01404 21.2186C2.3742 19.6053 2.52186 15.7771 2.52186 13.9943C2.52186 12.2115 2.37967 8.37793 3.01404 6.77012C3.44061 5.69824 4.26639 4.87246 5.34373 4.44043C6.95701 3.80059 10.7851 3.94824 12.568 3.94824C14.3508 3.94824 18.1844 3.80605 19.7922 4.44043C20.864 4.86699 21.6898 5.69277 22.1219 6.77012C22.7617 8.3834 22.614 12.2115 22.614 13.9943C22.614 15.7771 22.7617 19.6107 22.1219 21.2186Z" fill="white"/>
</g>
<defs>
<clipPath id="clip0_255_2244">
<rect width="24.5" height="28" fill="white" transform="translate(0.3125)"/>
</clipPath>
</defs>
</svg>
