<svg width="28" height="26" viewBox="0 0 28 26" fill="none" xmlns="http://www.w3.org/2000/svg">
<g id="&#240;&#159;&#166;&#134; icon &#34;Alternate Phone&#34;">
<path id="Vector" d="M26.5998 18.2808L20.7931 15.8849C20.5451 15.7832 20.2694 15.7617 20.0076 15.8238C19.7458 15.8859 19.512 16.0283 19.3415 16.2294L16.7699 19.2542C12.7342 17.4222 9.48631 14.2953 7.58349 10.4098L10.7253 7.93403C10.9346 7.77015 11.0827 7.54508 11.1473 7.2929C11.2118 7.04072 11.1893 6.77516 11.083 6.53642L8.59447 0.945977C8.47788 0.688622 8.27167 0.478499 8.01139 0.351842C7.75112 0.225185 7.4531 0.189933 7.16873 0.252163L1.77682 1.45012C1.50265 1.51107 1.25803 1.6597 1.08289 1.87174C0.907753 2.08378 0.812437 2.34671 0.8125 2.61762C0.8125 15.4207 11.5911 25.778 24.8687 25.778C25.1502 25.7782 25.4234 25.6865 25.6437 25.5179C25.8641 25.3492 26.0185 25.1137 26.0819 24.8496L27.3262 19.6585C27.3904 19.3834 27.353 19.0953 27.2204 18.8439C27.0878 18.5924 26.8684 18.3933 26.5998 18.2808Z" fill="white"/>
</g>
</svg>
