<svg width="54" height="47" viewBox="0 0 54 47" fill="none" xmlns="http://www.w3.org/2000/svg">
<g id="Layer_1" clip-path="url(#clip0_378_279)">
<g id="Group">
<path id="Vector" d="M36.1109 0.411133H18.6433C15.7979 0.411133 13.4922 2.71689 13.4922 5.56221V40.9687C13.4922 43.814 15.7979 46.1198 18.6433 46.1198H36.1109C38.9562 46.1198 41.262 43.814 41.262 40.9687V5.56221C41.262 2.71689 38.9562 0.411133 36.1109 0.411133ZM18.2476 2.33559H36.5102C37.9059 2.33559 39.0425 3.47228 39.0425 4.86797V6.90034H15.7152V4.86797C15.7152 3.47228 16.8519 2.33559 18.2476 2.33559ZM39.0425 8.48667V36.2637H15.7152V8.48667H39.0425ZM36.5102 44.1917H18.2476C16.8519 44.1917 15.7152 43.055 15.7152 41.6593V37.85H39.0425V41.6593C39.0425 43.055 37.9059 44.1917 36.5102 44.1917Z" fill="white"/>
<path id="Vector_2" d="M22.8636 5.45773H31.896C32.3349 5.45773 32.6874 5.10162 32.6874 4.66637C32.6874 4.23112 32.3313 3.875 31.896 3.875H22.8636C22.4248 3.875 22.0723 4.23112 22.0723 4.66637C22.0723 5.10162 22.4284 5.45773 22.8636 5.45773Z" fill="white"/>
<path id="Vector_3" d="M22.8634 40.2559H19.475C19.0361 40.2559 18.6836 40.612 18.6836 41.0472C18.6836 41.4825 19.0397 41.8386 19.475 41.8386H22.8634C23.3023 41.8386 23.6548 41.4825 23.6548 41.0472C23.6548 40.612 23.2987 40.2559 22.8634 40.2559Z" fill="white"/>
<path id="Vector_4" d="M35.2795 40.2559H31.891C31.4521 40.2559 31.0996 40.612 31.0996 41.0472C31.0996 41.4825 31.4557 41.8386 31.891 41.8386H35.2795C35.7183 41.8386 36.0708 41.4825 36.0708 41.0472C36.0708 40.612 35.7147 40.2559 35.2795 40.2559Z" fill="white"/>
<g id="Group_2">
<path id="Vector_5" d="M27.8635 10.2234C27.8635 10.2234 27.8528 10.2163 27.8492 10.2127C27.6693 10.0975 27.4571 10.0508 27.252 10.0796C27.1261 10.0939 27.0038 10.1371 26.8923 10.2055L17.1621 14.6191V16.5292L27.36 11.9033L37.5938 16.5472V14.6407L27.86 10.227L27.8635 10.2234Z" fill="white"/>
<path id="Vector_6" d="M27.36 33.2523L17.1621 28.6264V30.5329L26.601 34.817H28.1189L37.5938 30.5149V28.6084L27.36 33.2523Z" fill="white"/>
<path id="Vector_7" d="M12.0464 26.3057L3.8306 22.5791L12.0464 18.8525V16.9424L1.37017 21.7841C1.06081 21.9244 0.859375 22.2337 0.859375 22.5755C0.859375 22.9172 1.05722 23.2266 1.37017 23.3668L12.0464 28.2122V26.3057Z" fill="white"/>
<path id="Vector_8" d="M53.3476 21.7844L42.7109 16.957V18.8635L50.8872 22.5721L42.7109 26.2808V28.1908L53.3476 23.3635C53.657 23.2232 53.8584 22.9139 53.8584 22.5721C53.8584 22.2304 53.6606 21.9211 53.3476 21.7808V21.7844Z" fill="white"/>
</g>
<path id="Vector_9" d="M27.3764 38.9541C26.2181 38.9541 25.2793 39.893 25.2793 41.0512C25.2793 42.2095 26.2181 43.1483 27.3764 43.1483C28.5347 43.1483 29.4735 42.2095 29.4735 41.0512C29.4735 39.893 28.5347 38.9541 27.3764 38.9541Z" fill="white"/>
</g>
<g id="Group_3">
<g id="Group_4">
<path id="Vector_10" d="M30.8947 20.9788L30.9209 21.1274H30.9265C30.9445 21.2456 30.9531 21.3691 30.9531 21.4866C30.9531 21.4868 30.9531 21.487 30.9531 21.4872L30.9387 23.7323C30.9387 23.7325 30.9387 23.7328 30.9387 23.7331C30.9361 23.8581 30.8333 23.9548 30.7373 23.9548H30.0646C30.0196 23.9548 29.9661 23.9315 29.9199 23.881C29.8735 23.8303 29.8488 23.7671 29.8488 23.7138V21.2138V21.1984L29.8462 21.1832L29.4937 19.1365L29.1366 19.167L29.1366 23.2929L29.1366 23.2933L29.1509 29.2646L29.1509 29.2646L29.151 29.2701C29.1548 29.3831 29.0685 29.4728 28.9531 29.4728H28.0718C27.949 29.4728 27.8743 29.3954 27.8703 29.3024L27.7768 23.4267L27.774 23.2497H27.597H27.1689H26.9919L26.9891 23.4267L26.8956 29.3024C26.8916 29.3954 26.8169 29.4728 26.6941 29.4728H25.8128C25.6899 29.4728 25.6024 29.3766 25.6076 29.2731L25.6078 29.2731V29.2641V19.167L25.2507 19.1365L24.8982 21.1832L24.8955 21.1984V21.2138V23.7138C24.8955 23.7725 24.8713 23.8369 24.8297 23.8858C24.7885 23.9341 24.7418 23.9548 24.7013 23.9548H24.0286C23.9298 23.9548 23.8272 23.8555 23.8272 23.7354L23.8272 23.7339L23.8092 21.4749L23.8092 21.4728C23.8059 21.3074 23.8224 21.1459 23.8586 20.9878L23.8589 20.9878L23.8605 20.9786L24.3129 18.3897C24.3892 18.061 24.6402 17.8039 24.9657 17.7269L24.9657 17.7269L24.9666 17.7267L26.2471 17.4174L26.3848 17.3841V17.2426V15.6706C26.3848 15.1365 26.8333 14.6994 27.3704 14.6994C27.9074 14.6994 28.356 15.1365 28.356 15.6706V17.2426V17.3843L28.4938 17.4174L29.7816 17.7268L29.7822 17.7269C30.1087 17.8041 30.3625 18.062 30.4386 18.3898L30.8947 20.9788ZM23.6294 21.4764L23.6473 23.7354L23.6833 20.9476C23.6437 21.1203 23.6258 21.2965 23.6294 21.4764Z" fill="white" stroke="white" stroke-width="0.359712"/>
<g id="Clip path group">
<mask id="mask0_378_279" style="mask-type:luminance" maskUnits="userSpaceOnUse" x="23" y="14" width="9" height="16">
<g id="clippath">
<path id="Vector_11" d="M30.8947 20.9788L30.9209 21.1274H30.9265C30.9445 21.2456 30.9531 21.3691 30.9531 21.4866C30.9531 21.4868 30.9531 21.487 30.9531 21.4872L30.9387 23.7323C30.9387 23.7325 30.9387 23.7328 30.9387 23.7331C30.9361 23.8581 30.8333 23.9548 30.7373 23.9548H30.0646C30.0196 23.9548 29.9661 23.9315 29.9199 23.881C29.8735 23.8303 29.8488 23.7671 29.8488 23.7138V21.2138V21.1984L29.8462 21.1832L29.4937 19.1365L29.1366 19.167L29.1366 23.2929L29.1366 23.2933L29.1509 29.2646L29.1509 29.2646L29.151 29.2701C29.1548 29.3831 29.0685 29.4728 28.9531 29.4728H28.0718C27.949 29.4728 27.8743 29.3954 27.8703 29.3024L27.7768 23.4267L27.774 23.2497H27.597H27.1689H26.9919L26.9891 23.4267L26.8956 29.3024C26.8916 29.3954 26.8169 29.4728 26.6941 29.4728H25.8128C25.6899 29.4728 25.6024 29.3766 25.6076 29.2731L25.6078 29.2731V29.2641V19.167L25.2507 19.1365L24.8982 21.1832L24.8955 21.1984V21.2138V23.7138C24.8955 23.7725 24.8713 23.8369 24.8297 23.8858C24.7885 23.9341 24.7418 23.9548 24.7013 23.9548H24.0286C23.9298 23.9548 23.8272 23.8555 23.8272 23.7354L23.8272 23.7339L23.8092 21.4749L23.8092 21.4728C23.8059 21.3074 23.8224 21.1459 23.8586 20.9878L23.8589 20.9878L23.8605 20.9786L24.3129 18.3897C24.3892 18.061 24.6402 17.8039 24.9657 17.7269L24.9657 17.7269L24.9666 17.7267L26.2471 17.4174L26.3848 17.3841V17.2426V15.6706C26.3848 15.1365 26.8333 14.6994 27.3704 14.6994C27.9074 14.6994 28.356 15.1365 28.356 15.6706V17.2426V17.3843L28.4938 17.4174L29.7816 17.7268L29.7822 17.7269C30.1087 17.8041 30.3625 18.062 30.4386 18.3898L30.8947 20.9788ZM23.6294 21.4764L23.6473 23.7354L23.6833 20.9476C23.6437 21.1203 23.6258 21.2965 23.6294 21.4764Z" fill="white" stroke="white" stroke-width="0.359712"/>
</g>
</mask>
<g mask="url(#mask0_378_279)">
<g id="Group_5">
<path id="Vector_12" d="M26.3359 14.5596L27.1453 15.5416" stroke="white" stroke-width="0.359712" stroke-miterlimit="10"/>
<path id="Vector_13" d="M28.4246 14.5596L27.6152 15.5416" stroke="white" stroke-width="0.359712" stroke-miterlimit="10"/>
<path id="Vector_14" d="M25.7773 17.0625H28.8889" stroke="white" stroke-width="0.359712" stroke-miterlimit="10"/>
<path id="Vector_15" d="M27.3789 23.5165V17.1172" stroke="white" stroke-width="0.359712" stroke-miterlimit="10"/>
<path id="Vector_16" d="M25.418 19.9336H29.3424" stroke="white" stroke-width="0.359712" stroke-miterlimit="10"/>
<path id="Vector_17" d="M25.418 21.2324H29.3424" stroke="white" stroke-width="0.359712" stroke-miterlimit="10"/>
</g>
</g>
</g>
</g>
<g id="Vector_18">
<mask id="path-18-inside-1_378_279" fill="white">
<path d="M24.701 24.0949H24.0391C23.9492 24.0949 23.8809 24.0229 23.8809 23.9366C23.8809 23.8467 23.9528 23.7783 24.0391 23.7783H24.701C24.7909 23.7783 24.8593 23.8503 24.8593 23.9366C24.8593 24.0265 24.7873 24.0949 24.701 24.0949Z"/>
</mask>
<path d="M24.701 24.0949H24.0391C23.9492 24.0949 23.8809 24.0229 23.8809 23.9366C23.8809 23.8467 23.9528 23.7783 24.0391 23.7783H24.701C24.7909 23.7783 24.8593 23.8503 24.8593 23.9366C24.8593 24.0265 24.7873 24.0949 24.701 24.0949Z" fill="#B2B2B2"/>
<path d="M24.701 23.7352H24.0391V24.4546H24.701V23.7352ZM24.0391 23.7352C24.1532 23.7352 24.2406 23.8296 24.2406 23.9366H23.5211C23.5211 24.2162 23.7452 24.4546 24.0391 24.4546V23.7352ZM24.2406 23.9366C24.2406 24.0506 24.1461 24.138 24.0391 24.138V23.4186C23.7595 23.4186 23.5211 23.6427 23.5211 23.9366H24.2406ZM24.0391 24.138H24.701V23.4186H24.0391V24.138ZM24.701 24.138C24.5869 24.138 24.4996 24.0436 24.4996 23.9366H25.219C25.219 23.657 24.9949 23.4186 24.701 23.4186V24.138ZM24.4996 23.9366C24.4996 23.8225 24.594 23.7352 24.701 23.7352V24.4546C24.9806 24.4546 25.219 24.2305 25.219 23.9366H24.4996Z" fill="white" mask="url(#path-18-inside-1_378_279)"/>
</g>
<g id="Vector_19">
<mask id="path-20-inside-2_378_279" fill="white">
<path d="M26.5682 29.6564H25.9063C25.8164 29.6564 25.748 29.5844 25.748 29.4981C25.748 29.4082 25.82 29.3398 25.9063 29.3398H26.5682C26.6581 29.3398 26.7265 29.4118 26.7265 29.4981C26.7265 29.588 26.6545 29.6564 26.5682 29.6564Z"/>
</mask>
<path d="M26.5682 29.6564H25.9063C25.8164 29.6564 25.748 29.5844 25.748 29.4981C25.748 29.4082 25.82 29.3398 25.9063 29.3398H26.5682C26.6581 29.3398 26.7265 29.4118 26.7265 29.4981C26.7265 29.588 26.6545 29.6564 26.5682 29.6564Z" fill="#B2B2B2"/>
<path d="M26.5682 29.2967H25.9063V30.0161H26.5682V29.2967ZM25.9063 29.2967C26.0204 29.2967 26.1078 29.3912 26.1078 29.4981H25.3883C25.3883 29.7777 25.6124 30.0161 25.9063 30.0161V29.2967ZM26.1078 29.4981C26.1078 29.6122 26.0133 29.6996 25.9063 29.6996V28.9801C25.6267 28.9801 25.3883 29.2042 25.3883 29.4981H26.1078ZM25.9063 29.6996H26.5682V28.9801H25.9063V29.6996ZM26.5682 29.6996C26.4541 29.6996 26.3668 29.6051 26.3668 29.4981H27.0862C27.0862 29.2185 26.8621 28.9801 26.5682 28.9801V29.6996ZM26.3668 29.4981C26.3668 29.3841 26.4612 29.2967 26.5682 29.2967V30.0161C26.8478 30.0161 27.0862 29.792 27.0862 29.4981H26.3668Z" fill="white" mask="url(#path-20-inside-2_378_279)"/>
</g>
<g id="Vector_20">
<mask id="path-22-inside-3_378_279" fill="white">
<path d="M30.0567 24.0949H30.7186C30.8085 24.0949 30.8769 24.0229 30.8769 23.9366C30.8769 23.8467 30.8049 23.7783 30.7186 23.7783H30.0567C29.9668 23.7783 29.8984 23.8503 29.8984 23.9366C29.8984 24.0265 29.9704 24.0949 30.0567 24.0949Z"/>
</mask>
<path d="M30.0567 24.0949H30.7186C30.8085 24.0949 30.8769 24.0229 30.8769 23.9366C30.8769 23.8467 30.8049 23.7783 30.7186 23.7783H30.0567C29.9668 23.7783 29.8984 23.8503 29.8984 23.9366C29.8984 24.0265 29.9704 24.0949 30.0567 24.0949Z" fill="#B2B2B2"/>
<path d="M30.0567 24.4546H30.7186V23.7352H30.0567V24.4546ZM30.7186 24.4546C31.0125 24.4546 31.2366 24.2162 31.2366 23.9366H30.5171C30.5171 23.8296 30.6045 23.7352 30.7186 23.7352V24.4546ZM31.2366 23.9366C31.2366 23.6427 30.9982 23.4186 30.7186 23.4186V24.138C30.6116 24.138 30.5171 24.0506 30.5171 23.9366H31.2366ZM30.7186 23.4186H30.0567V24.138H30.7186V23.4186ZM30.0567 23.4186C29.7628 23.4186 29.5387 23.657 29.5387 23.9366H30.2581C30.2581 24.0436 30.1708 24.138 30.0567 24.138V23.4186ZM29.5387 23.9366C29.5387 24.2305 29.7771 24.4546 30.0567 24.4546V23.7352C30.1637 23.7352 30.2581 23.8225 30.2581 23.9366H29.5387Z" fill="white" mask="url(#path-22-inside-3_378_279)"/>
</g>
<g id="Vector_21">
<mask id="path-24-inside-4_378_279" fill="white">
<path d="M28.1895 29.6564H28.8514C28.9413 29.6564 29.0097 29.5844 29.0097 29.4981C29.0097 29.4082 28.9377 29.3398 28.8514 29.3398H28.1895C28.0996 29.3398 28.0312 29.4118 28.0312 29.4981C28.0312 29.588 28.1032 29.6564 28.1895 29.6564Z"/>
</mask>
<path d="M28.1895 29.6564H28.8514C28.9413 29.6564 29.0097 29.5844 29.0097 29.4981C29.0097 29.4082 28.9377 29.3398 28.8514 29.3398H28.1895C28.0996 29.3398 28.0312 29.4118 28.0312 29.4981C28.0312 29.588 28.1032 29.6564 28.1895 29.6564Z" fill="#B2B2B2"/>
<path d="M28.1895 30.0161H28.8514V29.2967H28.1895V30.0161ZM28.8514 30.0161C29.1453 30.0161 29.3694 29.7778 29.3694 29.4981H28.65C28.65 29.3911 28.7373 29.2967 28.8514 29.2967V30.0161ZM29.3694 29.4981C29.3694 29.2042 29.131 28.9801 28.8514 28.9801V29.6996C28.7444 29.6996 28.65 29.6122 28.65 29.4981H29.3694ZM28.8514 28.9801H28.1895V29.6996H28.8514V28.9801ZM28.1895 28.9801C27.8956 28.9801 27.6715 29.2185 27.6715 29.4981H28.391C28.391 29.6051 28.3036 29.6996 28.1895 29.6996V28.9801ZM27.6715 29.4981C27.6715 29.792 27.9099 30.0161 28.1895 30.0161V29.2967C28.2965 29.2967 28.391 29.3841 28.391 29.4981H27.6715Z" fill="white" mask="url(#path-24-inside-4_378_279)"/>
</g>
<path id="Vector_22" d="M27.9855 16.1997C27.9855 16.6658 27.6817 16.9803 27.3776 16.9803C27.0736 16.9803 26.7697 16.6658 26.7697 16.1997C26.7697 15.7336 27.0736 15.4191 27.3776 15.4191C27.6817 15.4191 27.9855 15.7336 27.9855 16.1997Z" fill="#B2B2B2" stroke="white" stroke-width="0.359712"/>
</g>
</g>
<defs>
<clipPath id="clip0_378_279">
<rect width="53" height="45.705" fill="white" transform="translate(0.859375 0.412109)"/>
</clipPath>
</defs>
</svg>
