<svg width="31" height="31" viewBox="0 0 31 31" fill="none" xmlns="http://www.w3.org/2000/svg">
<g id="circle-check-regular 1" clip-path="url(#clip0_189_474)">
<path id="Vector" d="M15.5 2.90625C18.8401 2.90625 22.0433 4.23309 24.4051 6.59487C26.7669 8.95666 28.0938 12.1599 28.0938 15.5C28.0938 18.8401 26.7669 22.0433 24.4051 24.4051C22.0433 26.7669 18.8401 28.0938 15.5 28.0938C12.1599 28.0938 8.95666 26.7669 6.59487 24.4051C4.23309 22.0433 2.90625 18.8401 2.90625 15.5C2.90625 12.1599 4.23309 8.95666 6.59487 6.59487C8.95666 4.23309 12.1599 2.90625 15.5 2.90625ZM15.5 31C19.6109 31 23.5533 29.367 26.4602 26.4602C29.367 23.5533 31 19.6109 31 15.5C31 11.3891 29.367 7.44666 26.4602 4.53984C23.5533 1.63303 19.6109 0 15.5 0C11.3891 0 7.44666 1.63303 4.53984 4.53984C1.63303 7.44666 0 11.3891 0 15.5C0 19.6109 1.63303 23.5533 4.53984 26.4602C7.44666 29.367 11.3891 31 15.5 31ZM22.3418 12.6543C22.9109 12.0852 22.9109 11.1648 22.3418 10.6018C21.7727 10.0387 20.8523 10.0326 20.2893 10.6018L13.5686 17.3225L10.7229 14.4768C10.1537 13.9076 9.2334 13.9076 8.67031 14.4768C8.10723 15.0459 8.10117 15.9662 8.67031 16.5293L12.5453 20.4043C13.1145 20.9734 14.0348 20.9734 14.5979 20.4043L22.3418 12.6543Z" fill="#95BC67"/>
</g>
<defs>
<clipPath id="clip0_189_474">
<rect width="31" height="31" fill="white"/>
</clipPath>
</defs>
</svg>
