<svg xmlns="http://www.w3.org/2000/svg" width="12" height="10" viewBox="0 0 12 10" fill="none">
  <g clip-path="url(#clip0_213_1018)">
    <path d="M6.1886 0.351562C6.08509 0.136719 5.86634 0 5.6261 0C5.38587 0 5.16907 0.136719 5.0636 0.351562L3.80774 2.93555L1.00306 3.34961C0.768681 3.38477 0.573368 3.54883 0.501102 3.77344C0.428837 3.99805 0.487431 4.24609 0.655399 4.41211L2.69056 6.42578L2.21009 9.27148C2.17102 9.50586 2.26868 9.74414 2.46204 9.88281C2.6554 10.0215 2.91126 10.0391 3.1222 9.92773L5.62806 8.58984L8.13391 9.92773C8.34485 10.0391 8.60071 10.0234 8.79407 9.88281C8.98743 9.74219 9.08509 9.50586 9.04602 9.27148L8.5636 6.42578L10.5988 4.41211C10.7667 4.24609 10.8273 3.99805 10.7531 3.77344C10.6788 3.54883 10.4855 3.38477 10.2511 3.34961L7.44446 2.93555L6.1886 0.351562Z" fill="white"/>
  </g>
  <defs>
    <clipPath id="clip0_213_1018">
      <rect width="11.25" height="10" fill="white"/>
    </clipPath>
  </defs>
</svg>