<svg width="173" height="31" viewBox="0 0 173 31" fill="none" xmlns="http://www.w3.org/2000/svg">
<g id="Capa_1" clip-path="url(#clip0_189_509)">
<path id="Vector" d="M24.7572 2.0687V11.4225C24.7572 11.4394 24.7716 11.4538 24.7909 11.4538C25.4686 11.4586 26.1223 11.473 26.7857 11.3961C27.7734 11.2807 28.4848 10.7953 28.9775 9.95169C29.451 9.14417 29.7346 8.26454 30.047 7.38972C30.0542 7.36809 30.0686 7.35848 30.0903 7.35848H30.7704C30.792 7.35848 30.8041 7.37049 30.8041 7.39212V16.8878C30.8041 16.9118 30.792 16.9214 30.7704 16.9214H30.0903C30.071 16.9214 30.0542 16.9094 30.047 16.8926C29.737 16.0802 29.4486 15.2607 29.0328 14.5133C28.718 13.9509 28.2517 13.4269 27.6701 13.1866C27.2279 13.004 26.752 12.9126 26.2377 12.9078C25.7402 12.903 25.2571 12.903 24.7909 12.9054C24.7668 12.9054 24.7548 12.9174 24.7548 12.9415V22.2064C24.7548 22.2256 24.7692 22.24 24.7885 22.24C26.2665 22.1679 27.7758 22.0934 29.3188 22.0189C29.5375 22.0069 29.8259 21.9661 30.184 21.894C31.6044 21.6056 32.609 20.7908 33.479 19.6733C34.4475 18.4283 35.4041 17.2002 36.3486 15.9889C36.3558 15.9817 36.3654 15.9769 36.3774 15.9793L37.0047 16.1091C37.0263 16.1139 37.0336 16.1259 37.0336 16.1475C36.8245 18.3875 36.613 20.7115 36.3967 23.1197C36.3846 23.2374 36.3702 23.3504 36.351 23.4585C36.3462 23.4778 36.3366 23.4874 36.3174 23.4874H16.8382C16.8117 23.4874 16.7973 23.473 16.7973 23.4465V22.9226C16.7973 22.901 16.8117 22.8817 16.831 22.8745L19.6333 22.0357C19.6477 22.0309 19.6597 22.0165 19.6597 21.9997V2.2874C19.6597 2.27058 19.6477 2.25376 19.6309 2.24895L16.819 1.40778C16.8045 1.40297 16.7949 1.39336 16.7949 1.37653V0.818955C16.7949 0.804535 16.8069 0.794922 16.819 0.794922H35.5507C35.5915 0.794922 35.6132 0.816552 35.6156 0.855006L36.1083 8.42557C36.1083 8.43999 36.0986 8.45441 36.0842 8.45921L35.469 8.62264C35.4473 8.62745 35.4305 8.62264 35.4161 8.60341C34.4668 7.26234 33.503 5.90445 32.5249 4.52973C32.3158 4.23412 32.0802 3.94091 31.8207 3.6477C31.1333 2.87142 30.2441 2.40757 29.153 2.25376C28.7925 2.20329 28.4632 2.16964 28.1676 2.15762C27.0524 2.10715 25.9373 2.05668 24.8221 2.00621C24.7789 2.00621 24.7548 2.02544 24.7548 2.0711L24.7572 2.0687Z" fill="black"/>
<path id="Vector_2" d="M121.643 3.43643C121.643 4.88806 120.466 6.0633 119.017 6.0633C117.567 6.0633 116.39 4.88566 116.39 3.43643C116.39 1.98721 117.565 0.80957 119.017 0.80957C120.468 0.80957 121.643 1.98721 121.643 3.43643Z" fill="black"/>
<path id="Vector_3" d="M135.216 0.837846L131.788 6.0411C131.788 6.0411 131.776 6.05072 131.769 6.05072H129.145C129.13 6.05072 129.118 6.0363 129.123 6.02188L130.541 0.821023C130.541 0.821023 130.553 0.804199 130.563 0.804199H135.199C135.216 0.804199 135.228 0.823426 135.218 0.837846H135.216Z" fill="black"/>
<path id="Vector_4" d="M59.7819 23.682V28.9333C59.7819 28.9477 59.7915 28.9621 59.8059 28.9669L61.8247 29.7384C61.8464 29.7456 61.8608 29.7673 61.8608 29.7889V30.171C61.8608 30.1878 61.8464 30.2023 61.8295 30.2023H53.8119C53.7903 30.2023 53.7807 30.1927 53.7807 30.171V29.7841C53.7807 29.7649 53.7903 29.748 53.8071 29.7408L55.4967 28.9742C55.5159 28.9645 55.5255 28.9501 55.5255 28.9309V9.85068C55.5255 9.83145 55.5159 9.81703 55.4991 9.80742L53.6918 8.94702C53.6653 8.935 53.6533 8.91337 53.6533 8.88453V8.46154C53.6533 8.44712 53.6605 8.43991 53.6774 8.43991H59.5367C59.5367 8.43991 59.5536 8.44712 59.5536 8.45433V9.92999C59.5536 10.0165 59.6593 10.0622 59.7218 10.0021C60.8922 8.90616 62.5193 8.0025 64.1367 7.80542C65.4442 7.6468 66.6386 7.94001 67.725 8.68745C69.9408 10.2136 70.7652 13.1457 70.6667 15.7101C70.5273 19.2694 68.3498 22.3 64.9275 23.3767C63.3196 23.8814 61.618 23.9728 59.8203 23.6507C59.7963 23.6459 59.7819 23.6555 59.7819 23.682ZM62.1348 10.2929C61.3609 10.2833 60.563 10.3866 59.8179 10.5933C59.7987 10.5981 59.7891 10.6125 59.7867 10.6318C59.7819 10.7183 59.7771 10.8024 59.7771 10.8817C59.7675 14.2392 59.765 17.5678 59.7723 20.8652C59.7723 20.9109 59.7843 20.9566 59.8083 20.995C60.3539 21.8746 61.1205 22.5428 62.1732 22.7182C62.5001 22.7735 62.8029 22.7903 63.0841 22.7663C64.6871 22.6365 65.4826 20.9878 65.8095 19.5891C65.9657 18.9185 66.0618 18.224 66.1003 17.5005C66.1147 17.2194 66.1267 16.955 66.1315 16.7074C66.1532 15.8783 66.1003 15.0491 65.9729 14.22C65.7157 12.5352 64.9635 10.9202 63.2355 10.4443C62.8894 10.3482 62.5217 10.2977 62.1348 10.2929Z" fill="black"/>
<path id="Vector_5" d="M113.628 15.4418C114.688 16.2157 115.252 17.2371 115.322 18.5085C115.509 21.8924 112.318 23.7694 109.33 23.8247C107.533 23.8583 105.711 23.5988 104.026 22.9523C104.009 22.9451 103.997 22.933 103.997 22.9138C103.988 22.8225 103.981 22.7288 103.978 22.6326C103.949 21.5079 103.937 20.3999 103.901 19.292C103.892 19.006 103.887 18.72 103.889 18.4364C103.889 18.4171 103.899 18.4051 103.918 18.4051L104.493 18.3426C104.529 18.3378 104.555 18.3523 104.577 18.3787C105.057 19.042 105.569 19.6957 106.105 20.3374C106.663 21.0056 107.264 21.6352 107.975 22.1135C108.547 22.498 109.169 22.6975 109.845 22.7119C111.207 22.7408 112.015 21.7891 112.032 20.4864C112.046 19.2006 110.938 18.4748 109.9 18.011C108.84 17.5375 107.679 17.1217 106.629 16.569C105.173 15.8023 104.113 14.7328 103.947 13.0408C103.815 11.7022 104.243 10.5414 105.23 9.55599C106.586 8.2029 108.643 7.69579 110.508 7.78231C111.373 7.82317 112.229 7.92171 113.08 8.08273C113.452 8.15243 113.82 8.24376 114.185 8.35912C114.204 8.36392 114.214 8.37834 114.214 8.39757L114.313 12.4328C114.313 12.4616 114.298 12.4785 114.272 12.4833L113.688 12.5962C113.664 12.601 113.64 12.5914 113.625 12.5722C113.101 11.844 112.585 11.1782 112.078 10.5702C111.296 9.6353 110.39 8.82296 109.085 8.90227C107.925 8.97197 107.091 9.96456 107.206 11.1302C107.283 11.9065 107.776 12.4713 108.42 12.8846C108.823 13.1442 109.244 13.3629 109.684 13.5431C110.496 13.8772 111.234 14.1824 111.9 14.4612C112.522 14.7208 113.101 15.0476 113.64 15.4394L113.628 15.4418Z" fill="black"/>
<path id="Vector_6" d="M138.522 16.4961C138.37 18.4909 137.479 20.3991 136.039 21.745C134.004 23.6461 131.098 24.182 128.406 23.6244C124.417 22.8001 122.501 19.2575 122.684 15.3785C122.787 13.153 123.775 11.0309 125.496 9.58405C127.301 8.06514 129.716 7.57245 132.033 7.84643C133.585 8.03149 135.061 8.6131 136.203 9.69461C138.02 11.4178 138.709 14.0303 138.522 16.4961ZM133.972 14.2129C133.852 12.4633 133.345 9.33891 131.211 8.89429C129.577 8.55302 128.476 9.55281 127.911 10.978C127.652 11.6341 127.466 12.3719 127.358 13.1867C127.173 14.5758 127.142 16.0347 127.267 17.5656C127.397 19.1734 127.82 21.5215 129.312 22.4011C130.209 22.9299 131.372 22.8409 132.177 22.2209C133.17 21.4542 133.614 19.9593 133.804 18.7721C134.04 17.294 134.078 15.7511 133.972 14.2129Z" fill="black"/>
<path id="Vector_7" d="M79.2272 15.8429C79.244 15.8429 79.256 15.8285 79.256 15.8141C79.2584 14.7422 79.2584 13.7039 79.256 12.7041C79.256 12.2884 79.2007 11.8942 79.0974 11.5193C78.7056 10.0989 77.4246 9.63506 76.0812 9.587C75.4202 9.56296 74.7954 9.60142 74.2017 9.70236C74.1705 9.70716 74.1585 9.74802 74.1849 9.76725C74.9732 10.421 75.6005 11.4688 75.4971 12.5071C75.3674 13.8265 74.1344 14.6629 72.8607 14.348C71.82 14.0885 71.2432 13.1848 71.2817 12.1346C71.3249 10.9088 72.2406 9.97394 73.2692 9.3731C74.793 8.48626 76.6219 8.05366 78.3908 7.96954C80.537 7.8662 82.6135 8.5848 83.26 10.8199C83.4138 11.3511 83.4883 11.875 83.4883 12.3917C83.4787 15.6434 83.4763 18.912 83.4787 22.1974C83.4787 22.2166 83.4907 22.2334 83.5075 22.243L85.1779 23.0025C85.2043 23.0145 85.2187 23.0386 85.2187 23.0674V23.4423C85.2187 23.464 85.2067 23.4736 85.1851 23.476C83.7022 23.4832 82.2482 23.4808 80.8206 23.4688C80.7413 23.4688 80.6283 23.4688 80.5514 23.4423C79.864 23.2164 79.4843 22.7526 79.417 22.0532C79.4074 21.9498 79.2824 21.9042 79.2079 21.9787C78.124 23.0626 76.9151 23.7956 75.3986 23.9831C75.2256 24.0047 74.9131 24.0119 74.4613 24.0047C72.5386 23.9735 70.8659 22.8078 70.7553 20.7674C70.6183 18.2655 72.7333 16.9725 74.8362 16.3909C76.1989 16.0136 77.6938 15.8621 79.2248 15.8477M78.5062 21.7047C78.7489 21.6014 79.0084 21.486 79.2296 21.3394C79.2464 21.3298 79.256 21.3105 79.256 21.2913V16.6625C79.256 16.6625 79.2464 16.6408 79.2344 16.6408C78.5206 16.6673 77.8404 16.7778 77.1915 16.9725C76.3287 17.2321 75.6029 17.7296 75.3265 18.5972C75.0645 19.4167 75.1054 20.4958 75.6534 21.2024C76.3551 22.1061 77.5376 22.1133 78.5037 21.7023L78.5062 21.7047Z" fill="black"/>
<path id="Vector_8" d="M91.9525 11.252C91.9356 11.2592 91.9236 11.276 91.9236 11.2928V22.1944C91.9236 22.2185 91.9332 22.2353 91.9549 22.2473L93.3055 23.0044C93.3272 23.0164 93.3392 23.038 93.3392 23.062V23.4514C93.3392 23.4706 93.3272 23.4826 93.308 23.4826H85.9633C85.9633 23.4826 85.9465 23.4754 85.9465 23.4658V23.05C85.9465 23.0284 85.9585 23.0116 85.9777 23.002L87.6625 22.2401C87.6793 22.2329 87.6865 22.2209 87.6865 22.2016V9.84361C87.6865 9.83159 87.6793 9.81958 87.6697 9.81477L85.8167 8.92313C85.8167 8.92313 85.8047 8.91111 85.8047 8.9039V8.48812C85.8047 8.46889 85.8167 8.45928 85.8359 8.45928H91.6256C91.6472 8.45928 91.6593 8.4713 91.6593 8.49293V10.5935C91.6593 10.6896 91.7746 10.7377 91.8443 10.6704C93.5507 9.00244 96.0478 7.53159 98.5304 8.07474C100.717 8.55301 101.525 10.5165 101.523 12.5666C101.523 15.7535 101.523 18.9691 101.523 22.2113C101.523 22.2233 101.527 22.2329 101.539 22.2377L103.229 23.0068C103.248 23.0164 103.26 23.0308 103.26 23.0548V23.4538C103.26 23.4754 103.251 23.485 103.229 23.485H95.8988C95.8771 23.485 95.8675 23.4754 95.8675 23.4538V23.0669C95.8675 23.0428 95.8819 23.0212 95.9012 23.0092L97.2687 22.2401C97.2879 22.2281 97.2999 22.2089 97.2999 22.1872C97.2999 19.3609 97.2999 16.722 97.2999 14.2706C97.2999 12.9415 97.2687 11.0164 95.5503 10.6944C95.1057 10.6127 94.6803 10.6391 94.2308 10.6632C93.4642 10.704 92.6518 10.9516 91.9525 11.252Z" fill="black"/>
<path id="Vector_9" d="M139.87 9.81026L138.039 8.92823C138.02 8.91862 138.008 8.89939 138.008 8.87776V8.48601C138.008 8.46679 138.017 8.45477 138.037 8.45477H143.824C143.846 8.45477 143.855 8.46679 143.858 8.48842L143.872 10.5865C143.872 10.6779 143.983 10.7259 144.05 10.6635C145.511 9.27912 147.345 8.07985 149.412 7.96449C149.856 7.94045 150.323 7.97891 150.75 8.07504C152.856 8.54129 153.726 10.4423 153.728 12.4227C153.733 15.4702 153.733 18.7291 153.728 22.2019C153.728 22.2164 153.738 22.2308 153.752 22.238L155.442 23.0071C155.461 23.0167 155.471 23.0311 155.471 23.0503V23.4517C155.471 23.4709 155.461 23.4805 155.442 23.4805H147.869C147.847 23.4805 147.838 23.4709 147.838 23.4493V23.0599C147.838 23.0359 147.852 23.0167 147.871 23.0071L149.469 22.2404C149.486 22.2308 149.498 22.214 149.498 22.1947C149.501 19.3035 149.498 16.4315 149.498 13.5835C149.498 13.1149 149.426 12.6342 149.282 12.1367C149.039 11.2955 148.494 10.8077 147.643 10.6731C147.46 10.6442 147.225 10.6322 146.936 10.637C145.968 10.6538 145.04 10.8629 144.153 11.2619C144.134 11.2715 144.122 11.2859 144.122 11.3076V22.1947C144.122 22.214 144.132 22.2284 144.148 22.238L145.499 22.9951C145.525 23.0095 145.54 23.0335 145.54 23.0623V23.4493C145.54 23.4709 145.528 23.4805 145.509 23.4805H138.178C138.157 23.4805 138.147 23.4709 138.147 23.4493V23.0599C138.147 23.0359 138.159 23.0167 138.181 23.0071L139.88 22.2356C139.88 22.2356 139.887 22.2284 139.887 22.2236V9.8391C139.887 9.82468 139.88 9.81266 139.868 9.80786L139.87 9.81026Z" fill="black"/>
<path id="Vector_10" d="M43.4096 9.5625C43.3831 9.57451 43.3783 9.59134 43.3927 9.61777L45.9331 13.9174C45.9427 13.9342 45.9691 13.9366 45.9787 13.9174L48.6248 9.69949C48.6248 9.69949 48.6296 9.67305 48.6176 9.66584L47.3967 8.94484C47.3727 8.93042 47.3583 8.90398 47.3583 8.87754V8.4882C47.3583 8.46657 47.3703 8.45695 47.3895 8.45695H52.8716C52.8884 8.45695 52.9004 8.47138 52.9004 8.4858V8.88475C52.9004 8.90398 52.8932 8.916 52.8764 8.92561C52.2996 9.19959 51.7131 9.47598 51.1195 9.75957C51.0498 9.79322 50.9921 9.83648 50.9465 9.89176C49.5261 11.627 48.1081 13.3574 46.6949 15.0854C46.6829 15.0998 46.6829 15.119 46.6949 15.1335L51.6891 22.2979C51.7035 22.3171 51.7204 22.3339 51.7444 22.3435L53.2681 23.0141C53.2873 23.0237 53.2994 23.0381 53.2994 23.0597V23.4419C53.2994 23.4683 53.2849 23.4827 53.2585 23.4827H45.1977C45.176 23.4827 45.1664 23.4731 45.1664 23.4515V23.0621C45.1664 23.0381 45.1784 23.0189 45.2025 23.0093L46.7021 22.3507C46.7286 22.3387 46.7382 22.3075 46.7238 22.281L44.1041 18.0103C44.0873 17.9838 44.0488 17.9814 44.032 18.0103L41.148 22.2546C41.1312 22.281 41.136 22.3027 41.1624 22.3171L42.4314 23.002C42.453 23.0141 42.465 23.0357 42.465 23.0597V23.4491C42.465 23.4707 42.453 23.4803 42.4338 23.4803H37.0503C37.0503 23.4803 37.0335 23.4731 37.0335 23.4635V23.0549C37.0335 23.0285 37.0455 23.0117 37.0671 22.9996L38.7254 22.1513C38.7567 22.1368 38.7831 22.1152 38.8047 22.0888L43.2509 16.7918C43.2654 16.775 43.2678 16.7557 43.2533 16.7341L38.4298 9.61297C38.413 9.58893 38.3914 9.56971 38.3649 9.55769L36.8628 8.92801C36.8436 8.9208 36.834 8.90398 36.834 8.88235V8.4906C36.834 8.46897 36.8508 8.45215 36.8724 8.45215H44.8035C44.8227 8.45215 44.8396 8.46897 44.8396 8.4882V8.87274C44.8396 8.89917 44.8251 8.92561 44.8011 8.93522L43.4096 9.55529V9.5625Z" fill="black"/>
<path id="Vector_11" d="M117.08 9.81924L115.196 8.93C115.196 8.93 115.182 8.91558 115.182 8.90597V8.48298C115.182 8.46856 115.194 8.45654 115.208 8.45654H121.298C121.313 8.45654 121.325 8.46856 121.325 8.48298V22.2085C121.325 22.2085 121.332 22.2278 121.341 22.2326L123.057 23.0136C123.057 23.0136 123.072 23.0281 123.072 23.0377V23.4535C123.072 23.4679 123.057 23.4799 123.043 23.4799H115.273C115.259 23.4799 115.247 23.4679 115.247 23.4535V23.0377C115.247 23.0377 115.254 23.0185 115.263 23.0136L117.075 22.235C117.075 22.235 117.092 22.2205 117.092 22.2109V9.84087C117.092 9.84087 117.088 9.82165 117.078 9.81684L117.08 9.81924Z" fill="black"/>
<path id="Vector_12" d="M53.0739 29.3112V30.1596C53.0739 30.174 53.0643 30.1861 53.0499 30.1861H0.195382C0.180962 30.1861 0.168945 30.174 0.168945 30.1596V25.5572C0.168945 25.5428 0.180962 25.5308 0.195382 25.5308H54.7923C54.8068 25.5308 54.8188 25.5428 54.8188 25.5572V28.4845C54.8188 28.4845 54.814 28.5037 54.8044 28.5085L53.0908 29.2872C53.0908 29.2872 53.0763 29.3016 53.0763 29.3112H53.0739Z" fill="black"/>
<path id="Vector_13" d="M62.5597 29.2584L60.5192 28.4797C60.5192 28.4797 60.5 28.4653 60.5 28.4508V25.5596C60.5 25.5428 60.5144 25.5308 60.5288 25.5308H172.237C172.253 25.5308 172.266 25.5452 172.266 25.5596V30.1572C172.266 30.174 172.251 30.1861 172.237 30.1861H62.6053C62.5885 30.1861 62.5765 30.1716 62.5765 30.1572V29.2872C62.5765 29.2752 62.5693 29.2632 62.5573 29.2584H62.5597Z" fill="black"/>
</g>
<defs>
<clipPath id="clip0_189_509">
<rect width="172.102" height="29.4098" fill="white" transform="translate(0.168945 0.794922)"/>
</clipPath>
</defs>
</svg>
