<svg width="197" height="29" viewBox="0 0 197 29" fill="none" xmlns="http://www.w3.org/2000/svg">
<g id="Capa_1" clip-path="url(#clip0_189_523)">
<path id="Vector" d="M27.7424 9.87416L18.6935 9.87871C18.6184 9.87871 18.5798 9.91509 18.5798 9.99012L18.5684 28.4654C18.5684 28.4949 18.5457 28.5177 18.5161 28.5177L9.48312 28.5108C9.44902 28.5108 9.41946 28.4813 9.41946 28.4472L9.42856 9.98102C9.42856 9.90599 9.38991 9.86734 9.31488 9.86734L0.386461 9.8628C0.309159 9.8628 0.270508 9.82187 0.270508 9.74684L0.275055 0.602434C0.275055 0.520585 0.31598 0.481934 0.397829 0.481934L27.6196 0.497849C27.6855 0.497849 27.7401 0.550142 27.7401 0.616076V9.87416H27.7424Z" fill="#1A1919"/>
<path id="Vector_2" d="M55.2275 9.78096C55.2275 9.83098 55.1889 9.86963 55.1389 9.86963H36.991C36.941 9.86963 36.9023 9.83098 36.9023 9.78096V0.57744C36.9023 0.527421 36.941 0.48877 36.991 0.48877H55.1389C55.1889 0.48877 55.2275 0.527421 55.2275 0.57744V9.78096Z" fill="#1A1919"/>
<path id="Vector_3" d="M189.472 12.2547C190.348 11.5908 191.341 11.2702 192.451 11.293C195.318 11.3498 196.277 13.5666 196.27 16.0834C196.264 18.2638 196.264 20.7739 196.27 23.6113C196.27 23.6591 196.248 23.6818 196.202 23.6818H192.278C192.176 23.6818 192.123 23.6295 192.123 23.5272C192.139 21.2922 192.139 19.0277 192.123 16.7291C192.119 16.0289 192.021 15.1353 191.257 14.8989C190.041 14.5237 189.363 15.3354 189.361 16.4745C189.354 18.5184 189.352 20.8762 189.356 23.5499C189.356 23.6363 189.313 23.6795 189.224 23.6795H185.364C185.259 23.6818 185.207 23.6295 185.207 23.5226V8.67377C185.207 8.60329 185.241 8.55327 185.307 8.52599L189.277 6.94357C189.315 6.92765 189.356 6.95494 189.356 6.99586V12.1978C189.354 12.2956 189.393 12.3161 189.472 12.2547Z" fill="#1A1919"/>
<path id="Vector_4" d="M108.221 12.2497C109.197 11.5107 110.311 11.2038 111.563 11.3243C114.146 11.5767 114.994 13.7457 115.01 16.0352C115.031 18.7067 115.033 21.2076 115.019 23.5403C115.019 23.6336 114.974 23.679 114.881 23.679H110.95C110.902 23.6813 110.863 23.6427 110.863 23.5949C110.877 20.9098 110.875 18.5021 110.854 16.374C110.834 14.2527 108.114 14.2663 108.105 16.3603C108.094 18.7999 108.092 21.1985 108.101 23.5608C108.101 23.6404 108.062 23.679 107.985 23.679H104.065C103.997 23.6813 103.942 23.6267 103.942 23.5608V8.67103C103.942 8.60054 103.976 8.55052 104.042 8.52324L107.989 6.95673C108.039 6.93627 108.096 6.97492 108.096 7.02949V12.1883C108.096 12.2929 108.137 12.3133 108.221 12.2497Z" fill="#1A1919"/>
<path id="Vector_5" d="M125.527 19.9485C126.689 19.7393 127.191 18.8344 127.787 17.8727C127.839 17.7885 127.91 17.7681 127.998 17.8158L131.495 19.6779C131.561 19.7143 131.586 19.7939 131.554 19.8598C129.949 23.036 126.993 24.3206 123.513 23.7727C118.781 23.0315 117.181 18.3206 117.706 14.0803C118.322 9.09658 122.158 6.51605 127.03 7.50052C129.458 7.99161 130.765 9.715 131.548 11.9067C131.577 11.9886 131.55 12.0454 131.47 12.0773L127.635 13.5983C127.585 13.6188 127.528 13.5938 127.507 13.5415C127.03 12.3024 126.466 11.1519 124.931 11.1928C121.719 11.2792 121.996 16.7404 122.842 18.5638C123.347 19.6483 124.367 20.1599 125.527 19.9485Z" fill="#1A1919"/>
<path id="Vector_6" d="M74.083 11.5452V23.543C74.0853 23.5885 74.0489 23.6249 74.0034 23.6249H69.7268C69.6813 23.6249 69.6449 23.5885 69.6449 23.543V11.5452C69.6427 11.4998 69.6063 11.4634 69.5608 11.4634H65.2137C65.1682 11.4634 65.1318 11.427 65.1318 11.3815V7.62101C65.1318 7.57554 65.1705 7.53916 65.216 7.53916H78.5074C78.5529 7.53689 78.5893 7.57327 78.5893 7.61874L78.5938 11.3793C78.5938 11.4247 78.5574 11.4611 78.512 11.4611H74.1648C74.1194 11.4611 74.083 11.4998 74.083 11.5452Z" fill="#1A1919"/>
<path id="Vector_7" d="M27.7415 9.87418L36.7268 9.86963C36.8427 9.86963 36.8996 9.92647 36.8996 10.0401V19.0845C36.9019 19.1436 36.9496 19.1914 37.0064 19.1914H55.0952C55.1838 19.1914 55.227 19.2368 55.227 19.3255V28.3813C55.227 28.4699 55.1816 28.5154 55.0929 28.5154H27.8393C27.7847 28.5154 27.7393 28.4699 27.7393 28.4154V9.87418H27.7415Z" fill="#1A1919"/>
<path id="Vector_8" d="M81.9153 18.9732C82.1472 20.0532 82.7315 20.6307 83.6659 20.7011C84.7186 20.7807 85.8122 20.5261 86.9513 19.9372C87.04 19.8917 87.1082 19.9122 87.1582 19.9986L88.5837 22.3972C88.6315 22.4768 88.6156 22.5427 88.5337 22.5905C84.2093 25.1119 78.4344 24.1911 78.1547 18.1524C78.0388 15.6356 78.7322 13.0459 81.0627 11.8932C82.2154 11.3225 83.5045 11.1748 84.9323 11.4476C88.4041 12.1092 89.2249 15.7401 88.9839 18.7208C88.9816 18.7686 88.9543 18.7936 88.9043 18.7936H82.0608C81.9357 18.7936 81.888 18.8527 81.9153 18.9732ZM82.0494 16.2381L85.2688 16.2335C85.3052 16.2335 85.3348 16.204 85.3348 16.1676V16.1016C85.3348 15.1558 84.639 14.3919 83.7864 14.3942H83.5227C82.6701 14.3964 81.9812 15.1627 81.9835 16.1062V16.1721C81.9835 16.2085 82.013 16.2381 82.0494 16.2381Z" fill="#1A1919"/>
<path id="Vector_9" d="M95.4024 15.9034C95.0932 17.2108 94.8704 20.2074 96.662 20.4938C97.7533 20.6712 98.3445 19.8072 98.9038 19.0501C98.9629 18.9705 99.0311 18.9592 99.1084 19.0205L101.466 20.8826C101.541 20.944 101.553 21.0145 101.5 21.0963C100.561 22.5242 99.4676 23.3858 98.2194 23.6791C96.7393 24.027 95.3479 23.8929 94.0474 23.2744C92.5377 22.556 91.6101 21.2237 91.2622 19.2752C90.471 14.8553 92.5082 10.8902 97.5442 11.3585C99.1834 11.5108 100.479 12.3794 101.43 13.9618C101.468 14.0277 101.457 14.0868 101.396 14.1346L98.7742 16.1194C98.681 16.1899 98.6082 16.1717 98.5605 16.0649C98.4036 15.7238 98.2058 15.4283 97.9671 15.1782C97.0212 14.1891 95.7026 14.6416 95.4024 15.9034Z" fill="#1A1919"/>
<path id="Vector_10" d="M163.153 12.2524C164.12 11.4976 165.3 11.202 166.689 11.368C169.103 11.6545 169.892 13.8576 169.892 15.9675V23.5045C169.894 23.5704 169.84 23.625 169.772 23.625H165.809C165.766 23.625 165.743 23.6022 165.743 23.559C165.743 21.0808 165.743 18.6708 165.741 16.329C165.741 15.7811 165.552 15.099 164.974 14.8944C163.883 14.5056 163.021 15.099 163.019 16.254C163.017 18.5935 163.017 21.0081 163.019 23.4931C163.019 23.5795 162.976 23.6227 162.89 23.6227L158.981 23.6295C158.904 23.6295 158.865 23.5909 158.865 23.5136V11.5749C158.865 11.5431 158.89 11.5181 158.922 11.5181H162.908C162.974 11.5181 163.026 11.5726 163.024 11.6386L163.017 12.1865C163.015 12.3025 163.06 12.3252 163.153 12.2524Z" fill="#1A1919"/>
<path id="Vector_11" d="M176.667 15.8807C176.358 17.0539 176.124 20.4484 178.047 20.5143C179.098 20.5507 179.671 19.8208 180.153 19.0069C180.182 18.9591 180.246 18.9478 180.289 18.9819L182.695 20.8872C182.763 20.9417 182.774 21.0054 182.729 21.0804C181.472 23.0925 179.739 24.0156 177.527 23.8497C174.305 23.6087 172.634 21.4965 172.37 18.4612C172.027 14.512 173.819 11.288 178.136 11.3176C180.169 11.3312 181.647 12.2679 182.652 13.9618C182.692 14.0277 182.681 14.0868 182.62 14.1346L179.978 16.1444C179.923 16.1854 179.848 16.1672 179.816 16.1081C179.409 15.3237 178.725 14.3369 177.659 14.7052C177.161 14.8758 176.829 15.2691 176.667 15.8807Z" fill="#1A1919"/>
<path id="Vector_12" d="M138.307 12.3133C138.307 12.3656 138.371 12.3929 138.409 12.3565C139.587 11.2425 140.992 11.0242 142.625 11.7017C142.77 11.7631 142.825 11.87 142.788 12.0223L141.874 16.0011C141.861 16.0625 141.783 16.0807 141.745 16.0329C140.981 15.0894 139.144 14.5824 138.523 15.8601C138.353 16.2125 138.269 16.6854 138.275 17.2811C138.291 19.4092 138.296 21.485 138.289 23.5062C138.287 23.5858 138.248 23.6245 138.168 23.6245H134.196C134.158 23.6245 134.14 23.6063 134.14 23.5676V11.6881C134.14 11.6244 134.19 11.5721 134.253 11.5721H138.109C138.218 11.5721 138.275 11.6267 138.28 11.7358L138.307 12.3133Z" fill="#1A1919"/>
<path id="Vector_13" d="M151.581 22.9493C150.483 23.7519 149.25 24.0384 147.884 23.8088C145.494 23.4109 144.826 21.2351 144.794 19.1138C144.756 16.5651 144.751 14.0664 144.783 11.6177C144.783 11.5882 144.799 11.5723 144.828 11.5723H148.798C148.884 11.5723 148.928 11.6155 148.928 11.7041C148.912 13.9709 148.916 16.224 148.937 18.4635C148.943 19.1593 149.05 20.1756 149.889 20.3438C151.256 20.6212 151.685 19.7117 151.692 18.5818C151.706 16.3036 151.708 14.0073 151.701 11.695C151.701 11.6587 151.731 11.6291 151.767 11.6291H155.796C155.828 11.6291 155.853 11.6564 155.853 11.6882V23.5655C155.853 23.6292 155.803 23.6792 155.742 23.6792H151.817C151.74 23.6814 151.701 23.6428 151.701 23.5678L151.695 23.0062C151.695 22.913 151.656 22.8948 151.581 22.9493Z" fill="#1A1919"/>
</g>
<defs>
<clipPath id="clip0_189_523">
<rect width="196" height="28.0357" fill="white" transform="translate(0.270508 0.481934)"/>
</clipPath>
</defs>
</svg>
