<svg width="27" height="27" viewBox="0 0 27 27" fill="none" xmlns="http://www.w3.org/2000/svg">
<path id="Vector" d="M26.2009 4.61104C27.2551 3.55685 27.2551 1.84484 26.2009 0.790645C25.1467 -0.263548 23.4347 -0.263548 22.3805 0.790645L13.5 9.6796L4.61104 0.799078C3.55685 -0.255115 1.84484 -0.255115 0.790645 0.799078C-0.263548 1.85327 -0.263548 3.56528 0.790645 4.61947L9.6796 13.5L0.799079 22.389C-0.255115 23.4431 -0.255115 25.1552 0.799079 26.2094C1.85327 27.2635 3.56528 27.2635 4.61947 26.2094L13.5 17.3204L22.389 26.2009C23.4431 27.2551 25.1552 27.2551 26.2094 26.2009C27.2635 25.1467 27.2635 23.4347 26.2094 22.3805L17.3204 13.5L26.2009 4.61104Z" fill="white"/>
</svg>
