<svg width="62" height="51" viewBox="0 0 62 51" fill="none" xmlns="http://www.w3.org/2000/svg">
<g id="Preview" clip-path="url(#clip0_189_361)">
<path id="Vector" d="M47.1744 17.8499H54.8244L59.9244 31.8749H1.27441L6.37441 17.8499H16.5744" stroke="white" stroke-width="3" stroke-linecap="round" stroke-linejoin="round"/>
<path id="Vector_2" d="M17.5867 28.0351C17.8428 27.2052 18.1431 26.3521 18.4885 25.4746C22.8965 14.2848 19.7322 6.95353 15.2998 1.27515" stroke="white" stroke-width="2" stroke-linecap="round" stroke-linejoin="round"/>
<path id="Vector_3" d="M21.6752 49.7249C18.7647 45.9973 16.3793 41.5951 16.3457 35.8054" stroke="white" stroke-width="2" stroke-linecap="round" stroke-linejoin="round"/>
<path id="Vector_4" d="M29.0613 28.0351C29.3175 27.2052 29.6177 26.3521 29.9631 25.4746C34.3711 14.2848 31.2068 6.95353 26.7744 1.27515" stroke="white" stroke-width="2" stroke-linecap="round" stroke-linejoin="round"/>
<path id="Vector_5" d="M33.1498 49.7249C30.2393 45.9973 27.8539 41.5951 27.8203 35.8054" stroke="white" stroke-width="2" stroke-linecap="round" stroke-linejoin="round"/>
<path id="Vector_6" d="M40.5369 28.0351C40.793 27.2052 41.0933 26.3521 41.4387 25.4746C45.8467 14.2848 42.6824 6.95353 38.25 1.27515" stroke="white" stroke-width="2" stroke-linecap="round" stroke-linejoin="round"/>
<path id="Vector_7" d="M44.6244 49.7249C41.7139 45.9973 39.3285 41.5951 39.2949 35.8054" stroke="white" stroke-width="2" stroke-linecap="round" stroke-linejoin="round"/>
<path id="Vector_8" d="M24.2256 17.8499H28.0506" stroke="white" stroke-width="3" stroke-linecap="round" stroke-linejoin="round"/>
<path id="Vector_9" d="M35.7002 17.8499H39.5252" stroke="white" stroke-width="3" stroke-linecap="round" stroke-linejoin="round"/>
</g>
<defs>
<clipPath id="clip0_189_361">
<rect width="61.2" height="51" fill="white"/>
</clipPath>
</defs>
</svg>
