<svg width="52" height="60" viewBox="0 0 52 60" fill="none" xmlns="http://www.w3.org/2000/svg">
<g id="Capa_1" clip-path="url(#clip0_189_336)">
<path id="Vector" d="M51.2498 51.8391C51.2498 56.0377 47.9098 59.4411 43.7788 59.4485L7.57357 59.5154C3.44253 59.5228 0.0805699 56.1268 0.0732454 51.9357L0 7.66887C0 3.47775 3.33999 0.0743228 7.47103 0.0668917L43.6762 1.21722e-05C47.8073 -0.00741889 51.1692 3.38858 51.1766 7.5797L51.2498 51.8391ZM12.8472 10.2474C12.8472 8.68692 11.5947 7.40878 10.0493 7.40878C8.50379 7.40878 7.25129 8.67949 7.25129 10.2474C7.25129 11.8154 8.50379 13.0861 10.0493 13.0861C11.5947 13.0861 12.8472 11.8154 12.8472 10.2474ZM23.8341 10.2474C23.8341 8.68692 22.5816 7.40878 21.0361 7.40878C19.4906 7.40878 18.2381 8.67949 18.2381 10.2474C18.2381 11.8154 19.4906 13.0861 21.0361 13.0861C22.5816 13.0861 23.8341 11.8154 23.8341 10.2474ZM42.1747 35.3273C42.1747 26.0533 34.7623 18.5257 25.6139 18.5257C16.4656 18.5257 9.06046 26.0459 9.06046 35.3273C9.06046 44.6087 16.4729 52.1215 25.6139 52.1215C34.7549 52.1215 42.1747 44.6012 42.1747 35.3273Z" fill="white"/>
<path id="Vector_2" d="M38.2269 37.2592C37.3113 42.2157 34.4474 46.0501 29.6791 47.6181C19.8423 50.8506 10.9356 42.0745 13.2722 32.0203C13.4113 31.4332 13.6164 30.8387 13.9021 30.2368C13.9753 30.0882 14.1145 29.9842 14.2756 29.9544C16.4803 29.5903 18.5971 29.8207 20.6333 30.6604C25.0647 32.5033 28.9174 36.9396 33.8029 37.1626C35.1359 37.222 36.5496 37.1849 38.0438 37.0362C38.1976 37.0214 38.2635 37.0883 38.2342 37.2517L38.2269 37.2592Z" fill="white"/>
</g>
<defs>
<clipPath id="clip0_189_336">
<rect width="51.2498" height="59.5154" fill="white"/>
</clipPath>
</defs>
</svg>
