<svg width="64" height="69" viewBox="0 0 64 69" fill="none" xmlns="http://www.w3.org/2000/svg">
<g id="Capa_1" clip-path="url(#clip0_189_354)">
<path id="Vector" d="M7.15196 47.3242C2.5083 38.8788 0.16946 29.3449 -0.00063751 19.8024C-0.0601716 16.2729 1.90445 13.1941 5.15332 11.8418C13.3265 8.43139 21.6953 4.89336 30.2767 1.21926C31.3058 0.777006 32.3179 0.759996 33.2959 1.17673C41.3926 4.62121 49.7954 8.17624 58.4959 11.8674C60.6901 12.7944 62.2125 14.2912 63.063 16.3579C63.6413 17.7612 63.8284 19.7429 63.6328 22.2943C63.148 28.5284 61.9574 34.3287 60.0523 39.6868C58.6745 43.5565 56.5057 47.6899 53.546 52.0954C49.6848 57.8532 44.4118 62.6074 37.7355 66.3581C34.7843 68.0165 32.0542 69.3008 28.7033 67.7444C19.45 63.4494 12.2719 56.637 7.14346 47.3157M13.301 45.5722C17.3323 52.7928 23.3112 58.1083 30.5829 61.7995C31.1187 62.0716 32.1478 62.2417 32.5815 62.0291C39.3004 58.7802 45.2198 53.8474 49.2086 47.4858C54.4901 39.0574 57.0671 29.8041 57.4328 19.7684C57.4668 18.7563 56.999 18.0334 56.0039 17.6167C47.9328 14.1722 39.9382 10.7617 32.0117 7.38529C31.8841 7.33426 31.7395 7.33426 31.6205 7.38529C22.971 11.0679 14.9424 14.4954 7.53468 17.6592C6.61615 18.0504 6.1739 18.7223 6.20792 19.6833C6.45456 26.9125 7.85786 33.6313 10.4348 39.8569C11.0897 41.4473 12.0423 43.3524 13.284 45.5807L13.301 45.5722Z" fill="white"/>
<path id="Vector_2" d="M45.2292 22.3365C43.9279 23.7398 43.4772 25.6704 44.2001 27.4649C45.025 29.5231 46.7175 30.5522 48.8777 30.6628C50.9529 30.7648 51.6588 33.3588 49.9579 34.4815C49.2945 34.9152 48.478 34.8131 47.7296 34.9747C43.8514 35.8592 42.6607 40.3753 45.3142 43.2755C47.2108 45.3422 44.4637 48.1403 42.1844 46.0821C40.8151 44.8489 38.9866 44.4151 37.2261 45.07C35.1594 45.8355 34.0538 47.4004 33.9092 49.7307C33.7306 52.5033 29.8609 52.4352 29.7673 49.8583C29.6227 45.7674 25.2597 43.1649 21.8833 45.7844C20.9648 46.4903 20.0888 47.2473 18.847 46.5754C18.0136 46.1331 17.6564 45.4187 17.7754 44.4407C17.869 43.6582 18.5494 43.0799 18.9746 42.4505C19.7656 41.2768 20.0462 39.8395 19.621 38.4702C18.9151 36.1739 17.2906 34.9492 14.7562 34.7961C12.0772 34.626 12.1282 30.7648 14.8412 30.6458C16.4742 30.5692 18.0476 29.8718 18.9151 28.5025C20.3014 26.3253 20.1143 24.2161 18.3538 22.1749C16.5677 20.0997 19.2383 17.4122 21.2369 19.1982C24.6474 22.2344 29.4356 20.3634 29.7588 15.8048C29.9714 12.9471 33.7901 13.0237 33.9092 15.6262C33.9857 17.2421 34.6066 18.8325 35.9503 19.7255C38.1786 21.2139 40.3559 21.0353 42.4821 19.1897C44.5488 17.3952 47.1938 20.2188 45.2377 22.3365M31.8935 29.5486C31.8935 27.7626 30.4392 26.3083 28.6532 26.3083C26.8671 26.3083 25.4128 27.7626 25.4128 29.5486C25.4128 31.3347 26.8671 32.789 28.6532 32.789C30.4392 32.789 31.8935 31.3432 31.8935 29.5486ZM38.2977 36.9904C38.2977 35.7742 37.3111 34.7876 36.0949 34.7876C34.8787 34.7876 33.8922 35.7742 33.8922 36.9904C33.8922 38.2066 34.8787 39.1932 36.0949 39.1932C37.3111 39.1932 38.2977 38.2066 38.2977 36.9904Z" fill="white"/>
</g>
<defs>
<clipPath id="clip0_189_354">
<rect width="63.71" height="67.5712" fill="white" transform="translate(0 0.878906)"/>
</clipPath>
</defs>
</svg>
