<svg width="65" height="70" viewBox="0 0 65 70" fill="none" xmlns="http://www.w3.org/2000/svg">
<g id="Capa_1" clip-path="url(#clip0_189_349)">
<path id="Vector" d="M7.2184 47.7414C2.87177 39.7075 0.668084 31.2137 0.0607696 21.9999C-0.190832 18.3213 0.295019 15.4149 2.88912 13.1852C3.59187 12.5779 4.45079 12.066 5.44852 11.6495C13.8121 8.11845 22.3839 4.50059 31.1726 0.778617C32.0749 0.396876 33.116 0.457608 33.9923 0.830672C42.4773 4.44853 51.0578 8.09242 59.7424 11.7537C61.9114 12.6646 63.4384 14.1916 64.3493 16.3345C64.9393 17.7227 65.1302 19.7615 64.9306 22.4511C64.6183 26.6502 63.9069 30.9014 62.779 35.2394C61.1306 41.6422 58.4324 47.0473 54.7972 52.5565C50.7889 58.6383 45.1582 63.6704 37.9138 67.6613C34.7731 69.3878 32.3092 70.1947 28.8214 68.5202C19.5035 64.0521 12.3025 57.12 7.2184 47.7414ZM28.0319 39.0308C26.1406 37.1047 24.1538 35.1266 22.0889 33.0964C18.6533 29.7128 13.8468 34.3544 17.3432 37.7988C19.7291 40.1499 22.2625 42.692 24.952 45.4336C26.7132 47.2295 28.7347 47.9843 30.7649 45.9715C36.6471 40.1066 42.2952 34.4759 47.7003 29.0534C49.0884 27.674 49.2532 25.3141 47.6742 24.0561C46.0432 22.7547 44.2299 23.0671 42.8591 24.4465C37.8184 29.4872 32.9599 34.3458 28.2488 39.0308C28.1881 39.0915 28.084 39.0915 28.0233 39.0308H28.0319Z" fill="white"/>
</g>
<defs>
<clipPath id="clip0_189_349">
<rect width="65" height="68.9215" fill="white" transform="translate(0 0.518555)"/>
</clipPath>
</defs>
</svg>
