<svg width="68" height="49" viewBox="0 0 68 49" fill="none" xmlns="http://www.w3.org/2000/svg">
<path id="Union" fill-rule="evenodd" clip-rule="evenodd" d="M34.3723 0.244646C30.3206 4.48253 26.5343 8.83593 23.0135 13.3079C22.9228 13.4234 22.8153 13.4386 22.691 13.3505L3.93443 0.244646C3.89075 0.214245 3.8538 0.217285 3.8202 0.256807L0.934317 3.6769C0.90744 3.71035 0.914159 3.75899 0.951114 3.78331L64.9042 48.6307C64.9378 48.655 64.9915 48.6489 65.0184 48.6155L67.8236 45.2957C67.911 45.1923 67.8975 45.1011 67.7833 45.0191L54.0325 35.382C53.9284 35.306 53.8881 35.2117 53.9183 35.0932C54.3047 33.5731 54.5062 32.202 54.5197 30.9799C54.5398 28.7971 53.9452 26.4988 52.7391 24.085C50.9417 20.4886 48.5195 16.7402 45.4723 12.8458C42.059 8.48024 38.4004 4.27884 34.4999 0.244646C34.4663 0.208165 34.4059 0.208165 34.3723 0.244646ZM17.5274 21.4339C17.309 21.8686 17.0873 22.2912 16.8554 22.7077C15.1958 25.7052 13.9595 29.1618 14.4634 32.5819C15.7165 41.1063 22.3484 47.3263 31.7283 48.5484C33.9087 48.8311 36.1294 48.7673 38.3837 48.3539C42.2976 47.6334 45.6908 45.9887 48.5598 43.4198C48.6002 43.3833 48.5968 43.3256 48.5531 43.2952L17.7793 21.3761C17.6953 21.3184 17.571 21.3457 17.5274 21.4339ZM24.4044 30.6666C24.2835 33.2051 24.8681 35.2328 26.1615 36.7498C28.0865 39.0086 31.0396 39.7687 34.2782 39.6258C34.4093 39.6227 34.4765 39.6805 34.4765 39.799V42.4652C34.4765 42.5777 34.416 42.6385 34.2917 42.6476C31.1774 42.8787 28.5401 42.3406 26.3866 41.0333C22.3786 38.5982 20.5779 35.1234 20.9877 30.6149C20.9911 30.5511 21.0314 30.5177 21.102 30.5177H24.2465C24.3574 30.5177 24.4078 30.5663 24.4044 30.6666Z" fill="white"/>
</svg>
